<svg xmlns="http://www.w3.org/2000/svg" viewBox="0 0 340.16 226.77">
  <defs>
    <style>
      .cls-1 {
        fill: #fff;
      }
    </style>
  </defs>
  <title>Smilodox_Logo_schwarz Kopie</title>
  <g id="Bild-Wortmarke-weiss">
    <path id="Bildmarke" class="cls-1" d="M133.85,95.66l-.4-12L113.06,73l4.75-7.65,27.54-1.69-4.87,6.24c79.23-9.73,137.36,34.24,137.36,34.24-57.55-47.95-115.61-47.4-115.61-47.4l4-7.4L107,54.62,93.77,68,75.06,77.14l5.7,8.42,5.95,4.21,16.88,15.76,16.81,5.63L107.3,100.1,96.07,83.33l6.82-1.83L120,88l.78,8.83-2.83.35-11.5-8.33,4.62,9.81,16.84,12.5c76.51-23.33,117.39-7.47,117.39-7.47C210.21,84.44,133.85,95.66,133.85,95.66Zm-24.74-27-9-.59,1.91-1.81,10.1-2Z"/>
    <g id="Wortmarke">
      <path class="cls-1" d="M75.09,138.64l-7.39,3.11c-1-4-2.74-5.18-4.66-5.18-2.07,0-3.26,1.41-3.26,3.85,0,7.24,15.38,8.72,15.38,23.14,0,8.87-5,13.9-12.94,13.9-6.43,0-12.12-4.44-13.31-12.12L57,162.89c1,4.44,3,5.85,5,5.85s3.4-1.41,3.4-3.78c0-8.87-15.82-10.2-15.82-24,0-7.4,4.65-13.31,12.34-13.31C69.25,127.7,73,131.91,75.09,138.64Z"/>
      <path class="cls-1" d="M116.65,128.36V176.8h-9.39V152.62h-.15l-7,17.45H95.35l-6.87-17.38h-.15V176.8H78.94V128.36h9.83l9,26.62h.15l9-26.62Z"/>
      <path class="cls-1" d="M133.14,128.36V176.8H122.71V128.36Z"/>
      <path class="cls-1" d="M149.34,128.36v38.75h11.83v9.69h-22V128.36Z"/>
      <path class="cls-1" d="M192.37,143.45v18.26c0,9.91-4.8,15.75-14.2,15.75S164,171.62,164,161.71V143.45c0-9.91,4.8-15.75,14.19-15.75S192.37,133.54,192.37,143.45Zm-10.42,0c0-5.11-1-6.51-3.78-6.51s-3.84,1.4-3.84,6.51v18.26c0,5.25,1.11,6.8,3.84,6.8S182,167,182,161.71Z"/>
      <path class="cls-1" d="M211.38,128.36c9.09,0,14.27,5.92,14.27,15.83v16.63c0,10-5.18,16-14.27,16h-14.2V128.36Zm0,9.39h-3.77V167.7h3.77c2.73,0,3.84-1.33,3.84-7.1v-16C215.22,139.08,214.11,137.75,211.38,137.75Z"/>
      <path class="cls-1" d="M257.74,143.45v18.26c0,9.91-4.8,15.75-14.19,15.75s-14.2-5.84-14.2-15.75V143.45c0-9.91,4.8-15.75,14.2-15.75S257.74,133.54,257.74,143.45Zm-10.42,0c0-5.11-1-6.51-3.77-6.51s-3.85,1.4-3.85,6.51v18.26c0,5.25,1.11,6.8,3.85,6.8s3.77-1.55,3.77-6.8Z"/>
      <path class="cls-1" d="M268.06,152l-8.95-23.66H270.2l4.59,16.49h.14l4.44-16.49h11l-8.87,24.11,9.24,24.33H279.67l-5-16.94h-.15l-4.66,16.94H258.89Z"/>
    </g>
  </g>
</svg>
