<svg xmlns="http://www.w3.org/2000/svg" viewBox="0 0 340.16 226.77">
  <defs>
    <style>
      .cls-1 {
        fill: #fff;
      }
    </style>
  </defs>
  <title>Smilodox_Logo_schwarz Kopie 5</title>
  <g id="Wortmarke-weiss">
    <g id="Wortmarke">
      <path class="cls-1" d="M75.33,99.45l-7.39,3.1c-1-4-2.74-5.17-4.66-5.17S60,98.78,60,101.22c0,7.25,15.38,8.73,15.38,23.15,0,8.87-5,13.9-12.94,13.9-6.44,0-12.13-4.44-13.31-12.13l8.06-2.44c1,4.44,3,5.84,5,5.84s3.4-1.4,3.4-3.77c0-8.87-15.82-10.2-15.82-24,0-7.39,4.66-13.31,12.35-13.31C69.49,88.5,73.26,92.72,75.33,99.45Z"/>
      <path class="cls-1" d="M116.89,89.17V137.6H107.5V113.42h-.15l-7,17.45H95.59L88.72,113.5h-.15v24.1H79.18V89.17H89L98,115.79h.15l9-26.62Z"/>
      <path class="cls-1" d="M133.38,89.17V137.6H123V89.17Z"/>
      <path class="cls-1" d="M149.58,89.17v38.75h11.83v9.68h-22V89.17Z"/>
      <path class="cls-1" d="M192.61,104.25v18.27c0,9.91-4.8,15.75-14.19,15.75s-14.2-5.84-14.2-15.75V104.25c0-9.9,4.81-15.75,14.2-15.75S192.61,94.35,192.61,104.25Zm-10.42,0c0-5.1-1-6.5-3.77-6.5s-3.85,1.4-3.85,6.5v18.27c0,5.25,1.11,6.8,3.85,6.8s3.77-1.55,3.77-6.8Z"/>
      <path class="cls-1" d="M211.62,89.17c9.09,0,14.27,5.92,14.27,15.82v16.64c0,10-5.18,16-14.27,16h-14.2V89.17Zm0,9.39h-3.77v29.95h3.77c2.74,0,3.84-1.33,3.84-7.1v-16C215.46,99.89,214.36,98.56,211.62,98.56Z"/>
      <path class="cls-1" d="M258,104.25v18.27c0,9.91-4.8,15.75-14.19,15.75s-14.2-5.84-14.2-15.75V104.25c0-9.9,4.81-15.75,14.2-15.75S258,94.35,258,104.25Zm-10.42,0c0-5.1-1-6.5-3.77-6.5s-3.85,1.4-3.85,6.5v18.27c0,5.25,1.11,6.8,3.85,6.8s3.77-1.55,3.77-6.8Z"/>
      <path class="cls-1" d="M268.3,112.83l-8.95-23.66h11.09L275,105.66h.15l4.43-16.49h11l-8.87,24.11L291,137.6H279.91l-5-16.93h-.15l-4.66,16.93H259.13Z"/>
    </g>
  </g>
</svg>
