<svg xmlns="http://www.w3.org/2000/svg" viewBox="0 0 340.16 226.77">
  <defs>
    <style>
      .cls-1 {
        fill: #fff;
      }
    </style>
  </defs>
  <title>Smilodox_Logo_schwarz Kopie 3</title>
  <g id="Bildmarke-weiss">
    <path id="Bildmarke" class="cls-1" d="M127.48,128.81l-.4-12-20.39-10.71,4.75-7.65L139,96.78,134.11,103c79.23-9.74,137.36,34.23,137.36,34.23C213.92,89.31,155.86,89.86,155.86,89.86l4-7.4L100.6,87.77l-13.2,13.4-18.71,9.11,5.7,8.43,6,4.2,16.88,15.77L114,144.31l-13.1-11.06L89.7,116.48l6.82-1.83,17.14,6.51.78,8.83-2.83.35L100.11,122l4.62,9.81,16.84,12.49C198.08,121,239,136.84,239,136.84,203.84,117.58,127.48,128.81,127.48,128.81Zm-24.74-27-9-.59,1.91-1.81,10.1-2Z"/>
  </g>
</svg>
